# xmcd
#
# Track frame offsets:
#	150
#	16972
#	33180
#	48542
#	63232
#	72947
#	88752
#	107005
#	133120
#	158130
#	177442
#	206630
#	233530
#	261417
#	288842
#	303670
#
# Disc length: 4424 seconds
#
# Revision: 0
# Processed by: cddbd v1.4PL0 Copyright (c) Steve Scherf et al.
# Submitted via: EasyCDDAExtractor 4.6.9.1
#
DISCID=e0114610
DTITLE=Leonard Cohen - Best
DYEAR=1900
DGENRE=Easy Listening
TTITLE0=Suzanne
TTITLE1=Sisters of mercy
TTITLE2=Bird on the wire
TTITLE3=The partisan
TTITLE4=Who by fire
TTITLE5=In the house of mystery
TTITLE6=The law
TTITLE7=The Manhattan
TTITLE8=Everybody knows
TTITLE9=I'm your man
TTITLE10=The future
TTITLE11=Waiting for the miracle
TTITLE12=Joan of Arc
TTITLE13=Dance to me to the end of love
TTITLE14=If it be your will
TTITLE15=Hallelujah
EXTD=
EXTT0=
EXTT1=
EXTT2=
EXTT3=
EXTT4=
EXTT5=
EXTT6=
EXTT7=
EXTT8=
EXTT9=
EXTT10=
EXTT11=
EXTT12=
EXTT13=
EXTT14=
EXTT15=
PLAYORDER=
